<?xml version="1.0" encoding="UTF-8"?>
<svg width="60px" height="60px" viewBox="0 0 60 60" version="1.1" xmlns="http://www.w3.org/2000/svg" xmlns:xlink="http://www.w3.org/1999/xlink">
    <!-- Generator: sketchtool 48.2 (47327) - http://www.bohemiancoding.com/sketch -->
    <title>DB5BAEE0-041B-453F-995A-C707E2D25462</title>
    <desc>Created with sketchtool.</desc>
    <defs>
        <polygon id="path-1" points="0.4377 0.141 20.2787 0.141 20.2787 19.1482 0.4377 19.1482"></polygon>
    </defs>
    <g id="Symbols" stroke="none" stroke-width="1" fill="none" fill-rule="evenodd">
        <g id="main_icon8">
            <g transform="translate(6.000000, 9.000000)">
                <path d="M14.0566,25.9605 C13.9446,25.9605 13.8126,26.0055 13.6426,26.1685 L12.0396,27.7075 C11.8406,27.8975 11.8146,28.0355 11.8126,28.1225 C11.8076,28.3635 12.0016,28.7085 12.3456,29.0655 C13.1736,29.9305 13.5116,29.6055 13.6926,29.4305 L15.2936,27.8925 C15.4756,27.7175 15.8126,27.3955 14.9876,26.5315 C14.6936,26.2255 14.4046,26.0275 14.1746,25.9755 C14.1376,25.9665 14.0986,25.9605 14.0566,25.9605 M13.2866,31.1395 C12.6206,31.1395 11.9216,30.7915 11.2636,30.1045 C10.6186,29.4335 10.2986,28.7555 10.3136,28.0905 C10.3246,27.5505 10.5626,27.0435 11.0026,26.6245 L12.6036,25.0875 C13.3056,24.4115 14.0306,24.4025 14.5116,24.5135 C15.0366,24.6345 15.5606,24.9635 16.0696,25.4915 L16.0706,25.4935 C17.2366,26.7135 17.3346,28.0145 16.3316,28.9745 L14.7306,30.5135 C14.2936,30.9325 13.8006,31.1395 13.2866,31.1395" id="Fill-1" fill="#000000"></path>
                <path d="M16.7451,28.8985 C16.5411,28.8985 16.4141,29.0205 16.3251,29.1055 L14.7241,30.6445 C14.4891,30.8695 14.4811,31.0295 14.5071,31.1695 C14.5511,31.4005 14.7371,31.6975 15.0311,32.0045 C15.8591,32.8655 16.1961,32.5425 16.3771,32.3685 L17.9791,30.8295 C18.1601,30.6545 18.4981,30.3305 17.6711,29.4685 C17.2501,29.0295 16.9561,28.8985 16.7451,28.8985 M15.9741,34.0765 C15.3081,34.0765 14.6081,33.7295 13.9481,33.0435 C13.4401,32.5125 13.1331,31.9755 13.0331,31.4465 C12.9411,30.9595 12.9801,30.2365 13.6851,29.5615 L15.2871,28.0235 C16.2911,27.0595 17.5871,27.2135 18.7541,28.4305 C19.9211,29.6475 20.0201,30.9485 19.0181,31.9115 L17.4161,33.4505 C16.9791,33.8695 16.4871,34.0765 15.9741,34.0765" id="Fill-3" fill="#000000"></path>
                <polygon id="Fill-5" fill="#000000" points="20.3364 11.77 17.6444 8.853 18.7464 7.835 21.4394 10.752"></polygon>
                <path d="M34.9966,30.5747 L34.9846,30.5747 C34.0536,30.5697 33.3186,29.9407 32.7216,29.3267 L29.2526,25.7607 L30.3276,24.7147 L33.7976,28.2817 C34.1556,28.6497 34.6146,29.0727 34.9936,29.0747 L34.9966,29.0747 C35.2386,29.0747 35.5266,28.9077 35.8546,28.5777 C36.6016,27.8367 36.5596,27.4477 35.6336,26.4957 L32.2456,23.0127 L30.1846,20.7387 C26.7286,21.9577 24.0276,19.6367 22.8406,18.6187 C22.6396,18.4457 22.4866,18.3057 22.3796,18.2417 C22.0996,18.0757 21.5326,18.4487 21.2166,18.7667 C21.0516,18.9307 20.6496,19.2757 19.9546,19.8697 C19.3166,20.4147 18.5716,21.0507 18.0706,21.5107 C17.9086,21.6577 17.7556,21.8187 17.6056,21.9737 C17.0766,22.5237 16.4926,23.1447 15.6636,23.0997 C15.1446,23.0707 14.6806,22.7807 14.2466,22.2137 C12.8556,20.3947 14.2666,15.8127 18.5166,12.1467 C20.4066,10.5147 24.4266,9.3357 27.9496,9.3837 L29.8756,7.1777 L31.0056,8.1637 L28.6156,10.9017 L28.2606,10.8897 C24.6366,10.7787 20.9636,12.0157 19.4966,13.2827 C15.4446,16.7777 14.8156,20.4877 15.4376,21.3027 C15.6426,21.5687 15.7536,21.6027 15.7546,21.6027 C15.8976,21.5837 16.2906,21.1767 16.5256,20.9327 C16.6966,20.7557 16.8726,20.5737 17.0576,20.4047 C17.5686,19.9357 18.3296,19.2857 18.9796,18.7297 C19.5356,18.2557 20.0086,17.8537 20.1536,17.7077 C20.9236,16.9347 22.1146,16.3327 23.1506,16.9557 C23.3336,17.0657 23.5376,17.2397 23.8176,17.4807 C25.0186,18.5117 27.2566,20.4307 30.0846,19.1647 L30.5816,18.9427 L33.3386,21.9867 L36.7086,25.4497 C37.3036,26.0607 38.8826,27.6837 36.9156,29.6387 C36.2986,30.2587 35.6516,30.5747 34.9966,30.5747" id="Fill-7" fill="#000000"></path>
                <path d="M31.9648,33.3155 L31.9498,33.3155 C31.0208,33.3095 30.2858,32.6815 29.6908,32.0685 L26.3258,28.6115 L27.4018,27.5655 L30.7658,31.0235 C31.1238,31.3905 31.5818,31.8125 31.9598,31.8155 C32.2388,31.7925 32.4938,31.6495 32.8258,31.3175 C33.5708,30.5775 33.5278,30.1895 32.6018,29.2375 L29.1908,25.7305 L30.2658,24.6845 L33.6768,28.1915 C34.2718,28.8025 35.8518,30.4255 33.8848,32.3795 C33.2568,33.0085 32.6288,33.3155 31.9648,33.3155" id="Fill-9" fill="#000000"></path>
                <path d="M29.0767,36.1631 L29.0637,36.1631 C28.1337,36.1571 27.3977,35.5301 26.8007,34.9161 L23.4387,31.4571 L24.5147,30.4121 L27.8757,33.8701 C28.2337,34.2381 28.6937,34.6611 29.0727,34.6631 L29.0757,34.6631 C29.3177,34.6631 29.6077,34.4961 29.9367,34.1651 C30.6817,33.4251 30.6387,33.0361 29.7127,32.0851 L26.2627,28.5371 L27.3377,27.4911 L30.7877,31.0391 C31.3827,31.6491 32.9627,33.2721 30.9967,35.2261 C30.3697,35.8561 29.7407,36.1631 29.0767,36.1631" id="Fill-11" fill="#000000"></path>
                <path d="M26.2256,39.0254 L26.2106,39.0254 C25.2816,39.0194 24.5466,38.3914 23.9506,37.7784 L23.4626,37.2184 L24.5966,36.2364 L25.0546,36.7644 C25.3826,37.1004 25.8426,37.5234 26.2216,37.5254 C26.4726,37.5584 26.7556,37.3594 27.0866,37.0284 C27.8296,36.2884 27.7876,35.8994 26.8616,34.9484 L23.3866,31.3754 L24.4616,30.3294 L27.9366,33.9024 C28.5306,34.5124 30.1096,36.1334 28.1466,38.0904 C27.5176,38.7194 26.8896,39.0254 26.2256,39.0254" id="Fill-13" fill="#000000"></path>
                <polygon id="Fill-15" fill="#000000" points="12.0742 26.4859 6.1152 19.9399 7.2242 18.9299 13.1832 25.4759"></polygon>
                <path d="M19.2881,31.8462 C19.0841,31.8462 18.9571,31.9672 18.8681,32.0532 L17.2671,33.5892 C17.0861,33.7632 16.7481,34.0892 17.5761,34.9512 C18.4021,35.8142 18.7401,35.4892 18.9221,35.3162 L20.5261,33.7752 C20.7061,33.6022 21.0421,33.2792 20.2161,32.4152 C19.7941,31.9772 19.4991,31.8462 19.2881,31.8462 M18.5161,37.0252 C17.8511,37.0252 17.1511,36.6772 16.4931,35.9902 C15.3261,34.7732 15.2261,33.4712 16.2281,32.5082 L17.8301,30.9692 C18.8341,30.0102 20.1301,30.1622 21.2991,31.3772 L21.3001,31.3782 C22.4651,32.5962 22.5641,33.8962 21.5661,34.8572 L19.9601,36.3982 C19.5221,36.8172 19.0291,37.0252 18.5161,37.0252" id="Fill-17" fill="#000000"></path>
                <path d="M21.9175,34.6831 C21.7135,34.6831 21.5865,34.8051 21.4985,34.8901 L19.8975,36.4281 C19.6985,36.6181 19.6725,36.7561 19.6705,36.8431 C19.6655,37.0841 19.8595,37.4291 20.2035,37.7871 C20.4975,38.0931 20.7855,38.2911 21.0165,38.3441 C21.1565,38.3771 21.3155,38.3751 21.5495,38.1501 L23.1525,36.6121 C23.3875,36.3881 23.3955,36.2271 23.3685,36.0871 C23.3245,35.8551 23.1385,35.5581 22.8445,35.2511 C22.4235,34.8141 22.1285,34.6831 21.9175,34.6831 M21.1385,39.8591 C20.9705,39.8591 20.8145,39.8371 20.6785,39.8061 C20.1525,39.6841 19.6285,39.3541 19.1215,38.8261 C18.4765,38.1541 18.1565,37.4761 18.1705,36.8101 C18.1825,36.2711 18.4205,35.7641 18.8595,35.3451 L20.4595,33.8081 C21.4605,32.8471 22.7565,32.9981 23.9265,34.2121 L23.9275,34.2131 C24.4355,34.7431 24.7435,35.2801 24.8425,35.8101 C24.9345,36.2971 24.8955,37.0201 24.1905,37.6951 L22.5885,39.2321 C22.0835,39.7181 21.5675,39.8591 21.1385,39.8591" id="Fill-19" fill="#000000"></path>
                <polygon id="Fill-21" fill="#000000" points="36.4302 25.5586 35.3002 24.5726 41.2322 17.7716 42.3622 18.7586"></polygon>
                <g id="Group-25" transform="translate(28.000000, 0.859400)">
                    <mask id="mask-2" fill="white">
                        <use xlink:href="#path-1"></use>
                    </mask>
                    <g id="Clip-24"></g>
                    <path d="M2.5557,6.0132 L14.7767,17.0302 L18.1607,13.2762 L5.9397,2.2592 L2.5557,6.0132 Z M14.8867,19.1482 L0.4377,6.1222 L5.8297,0.1402 L20.2787,13.1662 L14.8867,19.1482 Z" id="Fill-23" fill="#000000" mask="url(#mask-2)"></path>
                </g>
                <path d="M2.1211,15.5659 L5.6231,19.2089 L17.4861,7.8079 L13.9821,4.1649 L2.1211,15.5659 Z M5.5811,21.3299 L0.0001,15.5239 L14.0241,2.0439 L19.6071,7.8499 L5.5811,21.3299 Z" id="Fill-26" fill="#000000"></path>
            </g>
        </g>
    </g>
</svg>