<?xml version="1.0" encoding="UTF-8"?>
<svg width="60px" height="60px" viewBox="0 0 60 60" version="1.1" xmlns="http://www.w3.org/2000/svg" xmlns:xlink="http://www.w3.org/1999/xlink">
    <!-- Generator: sketchtool 48.2 (47327) - http://www.bohemiancoding.com/sketch -->
    <title>502D65CB-2381-44D1-89B8-970D2183BEA2</title>
    <desc>Created with sketchtool.</desc>
    <defs>
        <polygon id="path-1" points="0 40.8199 37.438 40.8199 37.438 -0.0001 0 -0.0001"></polygon>
    </defs>
    <g id="Symbols" stroke="none" stroke-width="1" fill="none" fill-rule="evenodd">
        <g id="main_icon3_roll">
            <g id="main_icon3" transform="translate(11.000000, 10.000000)">
                <path d="M14.189,25.9117 C14.189,26.5827 13.647,27.1297 12.973,27.1297 C12.297,27.1297 11.755,26.5827 11.755,25.9117 C11.755,25.2387 12.297,24.6917 12.973,24.6917 C13.647,24.6917 14.189,25.2387 14.189,25.9117" id="Fill-1" fill="#FFFFFF"></path>
                <path d="M25.8633,25.9117 C25.8633,26.5827 25.3173,27.1277 24.6443,27.1277 C23.9733,27.1277 23.4293,26.5827 23.4293,25.9117 C23.4293,25.2387 23.9733,24.6927 24.6443,24.6927 C25.3173,24.6927 25.8633,25.2387 25.8633,25.9117" id="Fill-3" fill="#FFFFFF"></path>
                <path d="M19.2168,28.9571 C18.8028,28.9571 18.4668,28.6211 18.4668,28.2071 L18.4668,26.7231 C18.4668,26.3091 18.8028,25.9731 19.2168,25.9731 C19.6308,25.9731 19.9668,26.3091 19.9668,26.7231 L19.9668,28.2071 C19.9668,28.6211 19.6308,28.9571 19.2168,28.9571" id="Fill-5" fill="#FFFFFF"></path>
                <path d="M6.2222,31.5279 L5.7172,31.5279 C3.2602,31.5279 1.2612,29.5829 1.2612,27.1919 C1.2612,25.1429 2.7542,23.3569 4.8112,22.9429 C5.2172,22.8639 5.6122,23.1239 5.6942,23.5299 C5.7762,23.9369 5.5132,24.3319 5.1072,24.4139 C3.7472,24.6869 2.7612,25.8549 2.7612,27.1919 C2.7612,28.7559 4.0872,30.0279 5.7172,30.0279 L6.2222,30.0279 C6.4502,30.0279 6.6832,30.0019 6.9182,29.9499 C7.3252,29.8599 7.7222,30.1169 7.8112,30.5219 C7.9002,30.9259 7.6452,31.3259 7.2402,31.4149 C6.9002,31.4899 6.5572,31.5279 6.2222,31.5279" id="Fill-7" fill="#FFFFFF"></path>
                <path d="M31.9854,31.2291 L31.4804,31.2291 C31.1464,31.2291 30.8014,31.1901 30.4584,31.1131 C30.0534,31.0221 29.7994,30.6211 29.8904,30.2171 C29.9814,29.8121 30.3804,29.5601 30.7864,29.6491 C31.0224,29.7021 31.2564,29.7291 31.4804,29.7291 L31.9854,29.7291 C33.6134,29.7291 34.9394,28.4041 34.9394,26.7761 C34.9394,25.3811 33.9514,24.1641 32.5894,23.8821 C32.1844,23.7981 31.9234,23.4011 32.0074,22.9951 C32.0914,22.5891 32.4914,22.3291 32.8944,22.4131 C34.9484,22.8391 36.4394,24.6741 36.4394,26.7761 C36.4394,29.2311 34.4414,31.2291 31.9854,31.2291" id="Fill-9" fill="#FFFFFF"></path>
                <path d="M12.8491,32.6851 C13.1351,33.3011 13.6301,33.6821 14.3711,33.8771 C15.6491,34.2151 17.0751,32.6421 17.5421,32.1241 C17.6911,31.9601 17.7661,31.8781 17.8621,31.8081 C18.6741,31.2191 19.7481,31.3101 20.3461,31.6951 C20.5001,31.7941 20.6511,31.9491 20.8791,32.1841 C21.5011,32.8221 22.7951,34.1481 23.9901,33.8331 C24.7191,33.6411 25.2311,33.2611 25.5361,32.6841 C25.4651,32.6821 25.3931,32.6771 25.3221,32.6681 C24.4181,32.5601 23.5621,31.9831 22.9121,31.0441 C22.4141,30.3251 20.7291,30.3541 19.6311,31.1001 C19.3761,31.2721 19.0421,31.2711 18.7871,31.1001 C17.6911,30.3531 16.0051,30.3251 15.5071,31.0441 C14.8571,31.9841 14.0011,32.5601 13.0971,32.6681 C13.0141,32.6781 12.9311,32.6841 12.8491,32.6851 M14.7421,35.4251 C14.4951,35.4251 14.2441,35.3951 13.9891,35.3281 C12.7741,35.0071 11.2821,34.1061 11.0701,31.6291 C11.0441,31.3231 11.2071,31.0321 11.4821,30.8941 C11.7561,30.7571 12.0871,30.8011 12.3161,31.0061 C12.4771,31.1491 12.6791,31.2061 12.9191,31.1791 C13.3841,31.1231 13.8771,30.7631 14.2741,30.1901 C15.2571,28.7691 17.5641,28.7351 19.2091,29.6061 C20.8561,28.7351 23.1631,28.7701 24.1451,30.1901 C24.5411,30.7631 25.0351,31.1231 25.4991,31.1791 C25.7391,31.2061 25.9421,31.1491 26.1031,31.0051 C26.3331,30.8011 26.6641,30.7571 26.9381,30.8951 C27.2131,31.0331 27.3751,31.3241 27.3491,31.6301 C27.1861,33.5221 26.1291,34.8201 24.3731,35.2831 C22.3301,35.8211 20.6251,34.0721 19.8051,33.2301 C19.6791,33.1011 19.5821,32.9961 19.5141,32.9421 C19.4281,32.8891 19.0371,32.8081 18.7441,33.0221 C18.7681,33.0061 18.7141,33.0661 18.6541,33.1311 C18.1081,33.7351 16.5771,35.4251 14.7421,35.4251" id="Fill-11" fill="#FFFFFF"></path>
                <mask id="mask-2" fill="white">
                    <use xlink:href="#path-1"></use>
                </mask>
                <g id="Clip-14"></g>
                <path d="M1.5,18.1439 L35.938,18.1439 L35.938,16.2429 L1.5,16.2429 L1.5,18.1439 Z M0,19.6439 L37.438,19.6439 L37.438,14.7429 L0,14.7429 L0,19.6439 Z" id="Fill-13" fill="#FFFFFF" mask="url(#mask-2)"></path>
                <path d="M33.2227,18.7696 C32.8967,19.9776 32.4477,21.1156 31.9777,22.2866 C31.3847,23.7696 30.7697,25.3026 30.3987,27.0606 L30.2547,27.7576 C29.3707,32.0816 27.8907,39.3196 19.6207,39.3196 C10.6107,39.3196 8.3957,33.2666 7.4727,27.9916 C7.1517,26.1686 6.5157,24.4116 5.9007,22.7126 C5.4357,21.4276 4.9647,20.1156 4.6287,18.7696 L3.0797,18.7696 C3.4357,20.3106 3.9687,21.7816 4.4907,23.2236 C5.1107,24.9376 5.6967,26.5566 5.9947,28.2506 C6.5967,31.6876 8.1947,40.8196 19.6207,40.8196 C29.1157,40.8196 30.8777,32.2006 31.7237,28.0576 L31.8667,27.3706 C32.2107,25.7406 32.8007,24.2686 33.3707,22.8446 C33.8897,21.5496 34.4177,20.2276 34.7747,18.7696 L33.2227,18.7696 Z" id="Fill-15" fill="#FFFFFF" mask="url(#mask-2)"></path>
                <path d="M3.7568,15.2779 C5.4008,6.7719 8.8128,2.2599 11.4948,1.6589 C13.0588,1.3079 14.1148,2.3359 14.7248,3.2599 C15.9518,5.1209 16.8448,6.2219 17.6208,6.8309 C18.3398,7.3949 19.4188,7.3879 20.1288,6.8159 C20.8998,6.1959 21.7788,5.0839 22.9808,3.2089 C23.5778,2.2759 24.6188,1.2319 26.1918,1.5669 C28.9028,2.1389 32.4048,6.6679 34.1398,15.2779 L35.6718,15.2779 C34.0228,6.8249 30.5138,0.9459 26.5018,0.0989 C24.6238,-0.3001 22.9238,0.5179 21.7178,2.3999 C20.6378,4.0849 19.8108,5.1479 19.1888,5.6469 C19.0158,5.7859 18.7218,5.7889 18.5468,5.6509 C17.9208,5.1599 17.0798,4.1079 15.9778,2.4349 C14.7488,0.5699 13.0388,-0.2251 11.1668,0.1949 C7.1998,1.0849 3.7908,6.9189 2.2278,15.2779 L3.7568,15.2779 Z" id="Fill-16" fill="#FFFFFF" mask="url(#mask-2)"></path>
            </g>
        </g>
    </g>
</svg>