<?xml version="1.0" encoding="UTF-8"?>
<svg width="60px" height="60px" viewBox="0 0 60 60" version="1.1" xmlns="http://www.w3.org/2000/svg" xmlns:xlink="http://www.w3.org/1999/xlink">
    <!-- Generator: sketchtool 48.2 (47327) - http://www.bohemiancoding.com/sketch -->
    <title>CF358739-912C-4AA1-813B-4F53D59F3784</title>
    <desc>Created with sketchtool.</desc>
    <defs>
        <polygon id="path-1" points="0.97221864 0.774 29.853 0.774 29.853 29.7738 0.97221864 29.7738"></polygon>
    </defs>
    <g id="Symbols" stroke="none" stroke-width="1" fill="none" fill-rule="evenodd">
        <g id="main_icon10">
            <g transform="translate(10.000000, 12.000000)">
                <path d="M11.7525,16.812 C10.9185,16.06 10.1055,15.415 9.3365,14.918 C8.9885,14.693 8.5235,14.793 8.2995,15.142 C8.0745,15.49 8.1745,15.954 8.5235,16.178 C9.6195,16.886 10.8395,17.946 12.0995,19.242 C11.9085,18.444 11.7925,17.631 11.7525,16.812" id="Fill-1" fill="#000000"></path>
                <g id="Group-5" transform="translate(10.000000, 0.226100)">
                    <mask id="mask-2" fill="white">
                        <use xlink:href="#path-1"></use>
                    </mask>
                    <g id="Clip-4"></g>
                    <path d="M6.043,24.6538 C6.059,24.6668 6.074,24.6808 6.089,24.6958 C10.895,29.4808 18.699,29.4648 23.486,24.6578 C27.868,20.2568 28.307,5.7298 28.349,2.3118 C23.402,2.1828 11.228,2.1008 6.05,7.3008 C1.279,12.0928 1.28,19.8638 6.043,24.6538 M14.769,29.7738 C11.265,29.7738 7.761,28.4508 5.078,25.8058 C5.061,25.7918 5.045,25.7768 5.029,25.7608 C-0.364,20.3908 -0.382,11.6348 4.987,6.2428 C10.901,0.3028 24.617,0.6998 29.125,0.8328 C29.527,0.8448 29.849,1.1738 29.853,1.5768 C29.858,2.3388 29.94,20.3018 24.548,25.7168 L24.017,25.1878 L24.548,25.7168 C21.856,28.4208 18.313,29.7738 14.769,29.7738" id="Fill-3" fill="#000000" mask="url(#mask-2)"></path>
                </g>
                <path d="M14.1158,36.2261 C14.0458,36.2261 13.9738,36.2161 13.9038,36.1951 C13.5058,36.0791 13.2788,35.6621 13.3958,35.2641 C15.9178,26.6961 21.3048,17.2491 25.9258,13.2901 C26.2398,13.0191 26.7138,13.0571 26.9828,13.3721 C27.2518,13.6861 27.2158,14.1601 26.9008,14.4291 C22.4728,18.2241 17.2858,27.3631 14.8348,35.6881 C14.7388,36.0151 14.4398,36.2261 14.1158,36.2261" id="Fill-6" fill="#000000"></path>
                <path d="M15.8511,25.7144 C11.7021,28.2024 6.2541,27.1134 3.4141,23.0984 C0.2211,18.5844 1.7921,9.5584 2.5561,5.7244 C4.4511,6.0834 9.7431,7.1914 13.8791,9.0034 C14.1571,8.5844 14.4701,8.1804 14.8031,7.7874 C9.5101,5.3714 2.5031,4.1834 2.0891,4.1154 C1.6951,4.0524 1.3131,4.3094 1.2321,4.7054 C0.5311,8.1434 -1.5999,18.6074 2.1901,23.9644 C4.3031,26.9514 7.6591,28.5464 11.0661,28.5464 C13.1401,28.5464 15.2281,27.9494 17.0701,26.7204 C16.6461,26.4114 16.2391,26.0774 15.8511,25.7144" id="Fill-8" fill="#000000"></path>
            </g>
        </g>
    </g>
</svg>