<?xml version="1.0" encoding="UTF-8"?>
<svg width="60px" height="60px" viewBox="0 0 60 60" version="1.1" xmlns="http://www.w3.org/2000/svg" xmlns:xlink="http://www.w3.org/1999/xlink">
    <!-- Generator: sketchtool 48.2 (47327) - http://www.bohemiancoding.com/sketch -->
    <title>C682D1DB-169B-4B08-BB38-C63944A79974</title>
    <desc>Created with sketchtool.</desc>
    <defs>
        <polygon id="path-1" points="0 0.699792027 6.46791969 0.699792027 6.46791969 9.1582 0 9.1582"></polygon>
        <polygon id="path-3" points="0.9835 0.746 8.2485 0.746 8.2485 5.1274 0.9835 5.1274"></polygon>
        <polygon id="path-5" points="0.6401 0.8131 30.1131 0.8131 30.1131 20 0.6401 20"></polygon>
    </defs>
    <g id="Symbols" stroke="none" stroke-width="1" fill="none" fill-rule="evenodd">
        <g id="main_icon2_roll">
            <g id="main_icon2" transform="translate(13.000000, 8.000000)">
                <path d="M12.6875,30.5078 C12.6875,31.1658 12.1565,31.7028 11.4955,31.7028 C10.8325,31.7028 10.3025,31.1658 10.3025,30.5078 C10.3025,29.8478 10.8325,29.3128 11.4955,29.3128 C12.1565,29.3128 12.6875,29.8478 12.6875,30.5078" id="Fill-1" fill="#FFFFFF"></path>
                <path d="M24.1313,30.5078 C24.1313,31.1658 23.5963,31.6998 22.9363,31.6998 C22.2783,31.6998 21.7463,31.1658 21.7463,30.5078 C21.7463,29.8478 22.2783,29.3138 22.9363,29.3138 C23.5963,29.3138 24.1313,29.8478 24.1313,30.5078" id="Fill-3" fill="#FFFFFF"></path>
                <path d="M17.5698,37.5522 C15.8098,37.5522 14.2228,36.9462 13.3018,35.9182 C13.0268,35.6092 13.0528,35.1352 13.3618,34.8592 C13.6698,34.5822 14.1438,34.6092 14.4208,34.9182 C15.0688,35.6422 16.3198,36.0672 17.6848,36.0512 C19.0628,36.0252 20.2688,35.5492 20.9098,34.7762 C21.1738,34.4572 21.6468,34.4132 21.9658,34.6772 C22.2848,34.9422 22.3288,35.4152 22.0648,35.7342 C21.1478,36.8382 19.5208,37.5172 17.7128,37.5512 C17.6648,37.5522 17.6168,37.5522 17.5698,37.5522" id="Fill-5" fill="#FFFFFF"></path>
                <path d="M17.6162,33.5083 C17.2022,33.5083 16.8662,33.1723 16.8662,32.7583 L16.8662,31.3033 C16.8662,30.8893 17.2022,30.5533 17.6162,30.5533 C18.0302,30.5533 18.3662,30.8893 18.3662,31.3033 L18.3662,32.7583 C18.3662,33.1723 18.0302,33.5083 17.6162,33.5083" id="Fill-7" fill="#FFFFFF"></path>
                <g id="Group-11" transform="translate(0.000000, 25.254400)">
                    <mask id="mask-2" fill="white">
                        <use xlink:href="#path-1"></use>
                    </mask>
                    <g id="Clip-10"></g>
                    <path d="M4.8779,9.1582 L4.3829,9.1582 C1.9659,9.1582 -0.0001,7.2442 -0.0001,4.8932 C-0.0001,2.8782 1.4689,1.1202 3.4919,0.7142 C3.8949,0.6342 4.2939,0.8952 4.3749,1.3022 C4.4569,1.7072 4.1929,2.1032 3.7869,2.1842 C2.4619,2.4502 1.4999,3.5902 1.4999,4.8932 C1.4999,6.4182 2.7939,7.6582 4.3829,7.6582 L4.8779,7.6582 C5.1009,7.6582 5.3289,7.6332 5.5559,7.5822 C5.9659,7.4972 6.3609,7.7492 6.4499,8.1532 C6.5399,8.5572 6.2839,8.9582 5.8799,9.0472 C5.5469,9.1212 5.2099,9.1582 4.8779,9.1582" id="Fill-9" fill="#FFFFFF" mask="url(#mask-2)"></path>
                </g>
                <path d="M30.1328,34.1201 L29.6368,34.1201 C29.3098,34.1201 28.9718,34.0811 28.6328,34.0061 C28.2288,33.9151 27.9738,33.5151 28.0648,33.1101 C28.1548,32.7061 28.5538,32.4531 28.9598,32.5421 C29.1958,32.5951 29.4168,32.6201 29.6368,32.6201 L30.1328,32.6201 C31.7208,32.6201 33.0128,31.3281 33.0128,29.7401 C33.0128,28.3801 32.0498,27.1931 30.7228,26.9171 C30.3168,26.8331 30.0568,26.4361 30.1408,26.0311 C30.2248,25.6251 30.6248,25.3631 31.0278,25.4491 C33.0478,25.8681 34.5128,27.6721 34.5128,29.7401 C34.5128,32.1551 32.5488,34.1201 30.1328,34.1201" id="Fill-12" fill="#FFFFFF"></path>
                <path d="M2.2593,18.1201 C1.8453,18.1201 1.5093,17.7841 1.5093,17.3701 C1.5093,16.6031 1.4823,15.9881 1.4583,15.4631 C1.3723,13.5021 1.3323,12.6071 2.8763,10.0981 C4.2423,7.8781 7.9883,4.1551 17.7323,4.1551 C18.1463,4.1551 18.4823,4.4911 18.4823,4.9051 C18.4823,5.3191 18.1463,5.6551 17.7323,5.6551 C8.7173,5.6551 5.3553,8.9311 4.1543,10.8841 C2.8513,13.0011 2.8763,13.5571 2.9573,15.3961 C2.9813,15.9391 3.0093,16.5771 3.0093,17.3701 C3.0093,17.7841 2.6733,18.1201 2.2593,18.1201" id="Fill-14" fill="#FFFFFF"></path>
                <path d="M32.1914,18.1201 C31.7774,18.1201 31.4414,17.7841 31.4414,17.3701 C31.4414,16.5761 31.4694,15.9381 31.4934,15.3951 C31.5754,13.5561 31.5994,13.0001 30.2974,10.8841 C29.0964,8.9311 25.7334,5.6551 16.7194,5.6551 C16.3054,5.6551 15.9694,5.3191 15.9694,4.9051 C15.9694,4.4911 16.3054,4.1551 16.7194,4.1551 C26.4634,4.1551 30.2094,7.8781 31.5754,10.0981 C33.1184,12.6071 33.0794,13.5011 32.9924,15.4611 C32.9684,15.9871 32.9414,16.6021 32.9414,17.3701 C32.9414,17.7841 32.6054,18.1201 32.1914,18.1201" id="Fill-16" fill="#FFFFFF"></path>
                <path d="M17.5552,28.3931 C11.9782,28.3931 5.0832,26.7561 2.1422,25.2261 C1.0842,24.6761 0.4112,23.9211 0.1412,22.9801 C-0.3478,21.2731 0.5932,19.3311 1.6822,17.4871 C1.8932,17.1301 2.3542,17.0131 2.7092,17.2221 C3.0662,17.4331 3.1842,17.8931 2.9742,18.2491 C2.0992,19.7311 1.2502,21.4021 1.5832,22.5671 C1.7372,23.1031 2.1462,23.5381 2.8342,23.8951 C5.5612,25.3131 12.2772,26.8931 17.5552,26.8931 C22.8962,26.8931 29.7512,25.0161 31.2872,24.0391 C32.1502,23.4901 32.6302,22.8931 32.7552,22.2121 C32.9352,21.2351 32.4282,19.9601 31.2052,18.3161 C30.9572,17.9831 31.0272,17.5141 31.3592,17.2671 C31.6922,17.0191 32.1612,17.0881 32.4082,17.4201 C33.9152,19.4461 34.4942,21.0551 34.2302,22.4841 C34.0282,23.5811 33.3082,24.5301 32.0922,25.3041 C30.1752,26.5241 22.8992,28.3931 17.5552,28.3931" id="Fill-18" fill="#FFFFFF"></path>
                <path d="M18.6079,20.7427 C12.4309,20.7427 6.0749,19.7517 2.5439,18.2907 C2.1609,18.1327 1.9789,17.6947 2.1379,17.3117 C2.2959,16.9297 2.7339,16.7457 3.1169,16.9057 C9.9099,19.7157 25.4099,20.2747 31.3659,16.9777 C31.7279,16.7777 32.1839,16.9087 32.3859,17.2707 C32.5869,17.6327 32.4549,18.0897 32.0929,18.2897 C28.9479,20.0307 23.8429,20.7427 18.6079,20.7427" id="Fill-20" fill="#FFFFFF"></path>
                <g id="Group-24" transform="translate(13.000000, 0.254400)">
                    <mask id="mask-4" fill="white">
                        <use xlink:href="#path-3"></use>
                    </mask>
                    <g id="Clip-23"></g>
                    <path d="M7.4985,5.1274 C7.0845,5.1274 6.7485,4.7914 6.7485,4.3774 C6.7485,3.2024 5.7915,2.2454 4.6155,2.2454 C3.4395,2.2454 2.4835,3.2024 2.4835,4.3774 C2.4835,4.7914 2.1475,5.1274 1.7335,5.1274 C1.3195,5.1274 0.9835,4.7914 0.9835,4.3774 C0.9835,2.3754 2.6125,0.7454 4.6155,0.7454 C6.6185,0.7454 8.2485,2.3754 8.2485,4.3774 C8.2485,4.7914 7.9125,5.1274 7.4985,5.1274" id="Fill-22" fill="#FFFFFF" mask="url(#mask-4)"></path>
                </g>
                <g id="Group-27" transform="translate(2.000000, 24.254400)">
                    <mask id="mask-6" fill="white">
                        <use xlink:href="#path-5"></use>
                    </mask>
                    <g id="Clip-26"></g>
                    <path d="M28.2891,1.3681 C28.2301,1.5161 28.1711,1.6631 28.1121,1.8121 C27.5291,3.2661 26.9271,4.7691 26.5621,6.4931 L26.4211,7.1761 C25.5561,11.4111 24.1081,18.5001 16.0121,18.5001 C7.3291,18.5001 5.0951,12.0971 4.1181,6.5181 C3.7931,4.6741 3.1471,3.0871 2.5221,1.5531 C2.5031,1.5051 2.4841,1.4581 2.4651,1.4101 C1.8121,1.2401 1.2011,1.0631 0.6401,0.8841 C0.8011,1.3011 0.9671,1.7121 1.1331,2.1191 C1.7561,3.6481 2.3441,5.0921 2.6411,6.7781 C3.2741,10.3941 4.9561,20.0001 16.0121,20.0001 C25.3321,20.0001 27.0601,11.5411 27.8911,7.4761 L28.0301,6.8041 C28.3681,5.2071 28.9461,3.7641 29.5041,2.3701 C29.7091,1.8581 29.9161,1.3411 30.1131,0.8131 C29.5891,0.9941 28.9791,1.1811 28.2891,1.3681" id="Fill-25" fill="#FFFFFF" mask="url(#mask-6)"></path>
                </g>
            </g>
        </g>
    </g>
</svg>