<?xml version="1.0" encoding="UTF-8"?>
<svg width="60px" height="60px" viewBox="0 0 60 60" version="1.1" xmlns="http://www.w3.org/2000/svg" xmlns:xlink="http://www.w3.org/1999/xlink">
    <!-- Generator: sketchtool 48.2 (47327) - http://www.bohemiancoding.com/sketch -->
    <title>1A4BBC0B-223B-4B0D-BF2F-42311C925868</title>
    <desc>Created with sketchtool.</desc>
    <defs>
        <polygon id="path-1" points="0.5211 0.09 12.9321 0.09 12.9321 12.4998 0.5211 12.4998"></polygon>
        <polygon id="path-3" points="0.5211 0.09 12.9321 0.09 12.9321 12.4998 0.5211 12.4998"></polygon>
    </defs>
    <g id="Symbols" stroke="none" stroke-width="1" fill="none" fill-rule="evenodd">
        <g id="main_icon5_roll">
            <g id="main_icon5" transform="translate(12.000000, 13.000000)">
                <g id="Group">
                    <g id="Group-3" transform="translate(3.000000, 0.910200)">
                        <mask id="mask-2" fill="white">
                            <use xlink:href="#path-1"></use>
                        </mask>
                        <g id="Clip-2"></g>
                        <path d="M6.7271,1.5898 C4.1321,1.5898 2.0211,3.6998 2.0211,6.2948 C2.0211,8.8888 4.1321,10.9998 6.7271,10.9998 C9.3211,10.9998 11.4321,8.8888 11.4321,6.2948 C11.4321,3.6998 9.3211,1.5898 6.7271,1.5898 M6.7271,12.4998 C3.3051,12.4998 0.5211,9.7158 0.5211,6.2948 C0.5211,2.8728 3.3051,0.0898 6.7271,0.0898 C10.1481,0.0898 12.9321,2.8728 12.9321,6.2948 C12.9321,9.7158 10.1481,12.4998 6.7271,12.4998" id="Fill-1" fill="#FFFFFF" mask="url(#mask-2)"></path>
                    </g>
                    <path d="M1.5,31.4102 L17.998,31.4102 L17.998,21.5152 C17.998,18.6702 15.683,16.3552 12.837,16.3552 L6.66,16.3552 C3.815,16.3552 1.5,18.6702 1.5,21.5152 L1.5,31.4102 Z M19.498,32.9102 L0,32.9102 L0,21.5152 C0,17.8432 2.988,14.8552 6.66,14.8552 L12.837,14.8552 C16.51,14.8552 19.498,17.8432 19.498,21.5152 L19.498,32.9102 Z" id="Fill-4" fill="#FFFFFF"></path>
                </g>
                <g id="Group" transform="translate(18.000000, 0.000000)">
                    <g id="Group-3" transform="translate(3.000000, 0.910200)">
                        <mask id="mask-4" fill="white">
                            <use xlink:href="#path-3"></use>
                        </mask>
                        <g id="Clip-2"></g>
                        <path d="M6.7271,1.5898 C4.1321,1.5898 2.0211,3.6998 2.0211,6.2948 C2.0211,8.8888 4.1321,10.9998 6.7271,10.9998 C9.3211,10.9998 11.4321,8.8888 11.4321,6.2948 C11.4321,3.6998 9.3211,1.5898 6.7271,1.5898 M6.7271,12.4998 C3.3051,12.4998 0.5211,9.7158 0.5211,6.2948 C0.5211,2.8728 3.3051,0.0898 6.7271,0.0898 C10.1481,0.0898 12.9321,2.8728 12.9321,6.2948 C12.9321,9.7158 10.1481,12.4998 6.7271,12.4998" id="Fill-1" fill="#FFFFFF" mask="url(#mask-4)"></path>
                    </g>
                    <path d="M1.5,31.4102 L17.998,31.4102 L17.998,21.5152 C17.998,18.6702 15.683,16.3552 12.837,16.3552 L6.66,16.3552 C3.815,16.3552 1.5,18.6702 1.5,21.5152 L1.5,31.4102 Z M19.498,32.9102 L0,32.9102 L0,21.5152 C0,17.8432 2.988,14.8552 6.66,14.8552 L12.837,14.8552 C16.51,14.8552 19.498,17.8432 19.498,21.5152 L19.498,32.9102 Z" id="Fill-4" fill="#FFFFFF"></path>
                </g>
            </g>
        </g>
    </g>
</svg>