<?xml version="1.0" encoding="UTF-8"?>
<svg width="60px" height="60px" viewBox="0 0 60 60" version="1.1" xmlns="http://www.w3.org/2000/svg" xmlns:xlink="http://www.w3.org/1999/xlink">
    <!-- Generator: sketchtool 48.2 (47327) - http://www.bohemiancoding.com/sketch -->
    <title>0B92FEA1-387C-47F7-B88F-7A04E0116566</title>
    <desc>Created with sketchtool.</desc>
    <defs></defs>
    <g id="Symbols" stroke="none" stroke-width="1" fill="none" fill-rule="evenodd">
        <g id="main_icon_1" fill="#040000">
            <g transform="translate(14.000000, 13.000000)">
                <path d="M17.603,0 C11.211,0 8.624,5.862 8.624,5.862 C8.444,6.223 8.256,6.558 8.065,6.869 C7.581,8.007 6.758,8.98 5.707,9.647 C5.25,10.028 4.952,10.202 4.952,10.202 C-1.169,14.903 0.112,21.958 0.112,21.958 L0.086,21.95 C0.901,27.429 4.37,31.793 9.463,33.852 C11.328,34.606 13.285,34.979 15.239,34.979 C21.562,34.979 27.854,31.075 30.89,23.566 L30.969,23.372 C34.906,13.638 30.618,4.277 22.716,1.08 C21.197,0.465 19.627,0.114 18.058,0.007 C18.058,0.007 18.057,0.007 18.055,0.01 C17.903,0.003 17.751,0 17.603,0 M17.603,1.5 C17.731,1.5 17.861,1.503 17.992,1.508 C18.009,1.509 18.028,1.51 18.045,1.51 C19.457,1.616 20.838,1.938 22.153,2.47 C29.822,5.573 33.013,14.317 29.579,22.809 L29.499,23.004 C26.887,29.465 21.422,33.479 15.239,33.479 C13.449,33.479 11.695,33.137 10.025,32.461 C5.468,30.619 2.414,26.811 1.611,21.987 C1.613,21.889 1.605,21.789 1.587,21.689 C1.577,21.628 0.54,15.534 5.805,11.438 C5.952,11.345 6.231,11.157 6.594,10.86 C7.832,10.051 8.799,8.915 9.4,7.562 C9.603,7.224 9.793,6.877 9.966,6.529 C9.975,6.513 9.985,6.49 9.993,6.474 C10.084,6.271 12.301,1.5 17.603,1.5" id="Fill-1"></path>
                <path d="M25.2319,20.2429 L25.2289,20.1709 L23.2349,20.1709 L23.2389,20.2499 C23.3279,22.0409 22.7019,23.7639 21.4729,25.0979 C20.2349,26.4449 18.5309,27.2409 16.6779,27.3389 L16.5969,27.3449 L16.5979,27.3489 C16.1129,27.4169 15.7449,27.8239 15.7449,28.3079 C15.7449,28.8339 16.1759,29.2639 16.7109,29.2789 L16.7109,29.2829 L16.7879,29.2789 C19.1709,29.1509 21.3629,28.1279 22.9579,26.3949 C24.5139,24.7009 25.3219,22.5169 25.2319,20.2429" id="Fill-3"></path>
            </g>
        </g>
    </g>
</svg>