<?xml version="1.0" encoding="UTF-8"?>
<svg width="60px" height="60px" viewBox="0 0 60 60" version="1.1" xmlns="http://www.w3.org/2000/svg" xmlns:xlink="http://www.w3.org/1999/xlink">
    <!-- Generator: sketchtool 48.2 (47327) - http://www.bohemiancoding.com/sketch -->
    <title>F8139CB8-E519-4099-A881-6DEF877A8237</title>
    <desc>Created with sketchtool.</desc>
    <defs>
        <polygon id="path-1" points="3.03812035e-05 0.483 33.798 0.483 33.798 37.9998 3.03812035e-05 37.9998"></polygon>
    </defs>
    <g id="Symbols" stroke="none" stroke-width="1" fill="none" fill-rule="evenodd">
        <g id="main_icon9_roll">
            <g id="main_icon9" transform="translate(13.000000, 10.000000)">
                <path d="M1.5428,23.3232 C2.3948,23.4912 3.2448,23.5762 4.0738,23.5762 C11.3268,23.5762 17.2268,17.6772 17.2268,10.4242 C17.2268,9.2022 17.0588,7.9952 16.7288,6.8302 C14.6908,6.7822 12.9548,7.2412 11.6928,8.1772 C11.4808,8.3342 11.1828,8.2992 11.0128,8.0962 L6.5798,2.8162 L3.4338,11.8092 C2.0568,15.7452 1.3898,19.8162 1.5428,23.3232 M4.0738,24.5762 C3.0508,24.5762 2.0008,24.4572 0.9538,24.2202 C0.7368,24.1722 0.5788,23.9852 0.5648,23.7632 C0.3358,20.0432 1.0198,15.6802 2.4898,11.4792 L5.9248,1.6562 C5.9848,1.4872 6.1308,1.3622 6.3078,1.3292 C6.4818,1.2942 6.6648,1.3632 6.7798,1.5002 L11.4868,7.1062 C12.9678,6.1622 14.8998,5.7272 17.1318,5.8452 C17.3408,5.8562 17.5208,5.9962 17.5828,6.1952 C18.0098,7.5602 18.2268,8.9832 18.2268,10.4242 C18.2268,18.2282 11.8778,24.5762 4.0738,24.5762" id="Fill-1" fill="#FFFFFF"></path>
                <g id="Group-5" transform="translate(0.000000, 0.517500)">
                    <mask id="mask-2" fill="white">
                        <use xlink:href="#path-1"></use>
                    </mask>
                    <g id="Clip-4"></g>
                    <path d="M6.6429,2.7998 C5.9829,4.7098 4.6469,8.5658 3.2089,12.6788 C0.4849,20.4638 1.0329,27.1378 4.7489,31.4748 C7.2419,34.3828 11.1619,36.2018 15.5059,36.4658 C20.1059,36.7468 24.6719,35.2488 27.7159,32.4638 C33.3719,27.2898 32.7649,19.8968 31.2599,14.6058 C30.0999,10.5298 28.1719,5.1168 27.3019,2.7218 L23.1889,7.7338 C22.9709,7.9998 22.5979,8.0818 22.2869,7.9348 C18.5339,6.1458 15.0759,6.1408 11.7149,7.9208 C11.4019,8.0858 11.0179,8.0108 10.7899,7.7398 L6.6429,2.7998 Z M16.6479,37.9998 C16.2389,37.9998 15.8279,37.9878 15.4139,37.9628 C10.6679,37.6748 6.3659,35.6658 3.6109,32.4508 C-0.4691,27.6918 -1.1151,20.4938 1.7929,12.1838 C3.8289,6.3638 5.6569,1.0588 5.6569,1.0588 C5.7449,0.8038 5.9639,0.6158 6.2289,0.5668 C6.4929,0.5148 6.7669,0.6138 6.9399,0.8208 L11.5579,6.3218 C14.9929,4.6878 18.6329,4.6928 22.3959,6.3358 L26.9749,0.7568 C27.1449,0.5498 27.4119,0.4488 27.6779,0.4928 C27.9429,0.5368 28.1639,0.7188 28.2569,0.9708 C28.2859,1.0478 31.1609,8.7788 32.7019,14.1958 C34.3239,19.8928 34.9499,27.8798 28.7279,33.5708 C25.6169,36.4178 21.2679,37.9998 16.6479,37.9998 Z" id="Fill-3" fill="#FFFFFF" mask="url(#mask-2)"></path>
                </g>
                <path d="M19.7977,24.8788 C19.7977,26.5158 18.4697,27.8458 16.8317,27.8458 C15.1927,27.8458 13.8637,26.5158 13.8637,24.8788 C13.8637,23.2388 15.1927,21.9118 16.8317,21.9118 C18.4697,21.9118 19.7977,23.2388 19.7977,24.8788" id="Fill-6" fill="#FFFFFF"></path>
                <path d="M14.3744,31.997 C13.8664,31.997 13.3524,31.897 12.8764,31.66 C12.5054,31.475 12.3554,31.024 12.5404,30.654 C12.7254,30.283 13.1764,30.133 13.5464,30.318 C14.2284,30.658 15.0804,30.468 15.6024,30.202 C16.0554,29.972 16.2274,29.717 16.2384,29.65 L16.2374,27.845 C16.2374,27.431 16.5734,27.095 16.9874,27.095 C17.4014,27.095 17.7374,27.431 17.7374,27.845 L17.7374,29.658 C17.7374,30.292 17.3104,30.919 16.5654,31.38 C15.9844,31.74 15.1884,31.997 14.3744,31.997" id="Fill-8" fill="#FFFFFF"></path>
                <path d="M11.286,17.8495 C11.286,18.4965 10.762,19.0215 10.116,19.0215 C9.469,19.0215 8.944,18.4965 8.944,17.8495 C8.944,17.2035 9.469,16.6795 10.116,16.6795 C10.762,16.6795 11.286,17.2035 11.286,17.8495" id="Fill-10" fill="#FFFFFF"></path>
                <path d="M24.1707,17.8495 C24.1707,18.4965 23.6457,19.0215 23.0007,19.0215 C22.3527,19.0215 21.8287,18.4965 21.8287,17.8495 C21.8287,17.2035 22.3527,16.6795 23.0007,16.6795 C23.6457,16.6795 24.1707,17.2035 24.1707,17.8495" id="Fill-12" fill="#FFFFFF"></path>
                <path d="M19.076,32.0527 C18.571,32.0527 18.066,31.9587 17.63,31.7627 C16.745,31.3657 16.238,30.5977 16.238,29.6577 C16.238,29.2437 16.574,28.9077 16.988,28.9077 C17.402,28.9077 17.738,29.2437 17.738,29.6577 C17.738,29.8947 17.795,30.1927 18.244,30.3947 C18.913,30.6957 19.901,30.5357 20.274,30.2057 C20.583,29.9297 21.058,29.9587 21.333,30.2677 C21.608,30.5777 21.58,31.0517 21.27,31.3267 C20.74,31.7987 19.907,32.0527 19.076,32.0527" id="Fill-14" fill="#FFFFFF"></path>
            </g>
        </g>
    </g>
</svg>