<?xml version="1.0" encoding="UTF-8"?>
<svg width="60px" height="60px" viewBox="0 0 60 60" version="1.1" xmlns="http://www.w3.org/2000/svg" xmlns:xlink="http://www.w3.org/1999/xlink">
    <!-- Generator: sketchtool 48.2 (47327) - http://www.bohemiancoding.com/sketch -->
    <title>6FF2D452-342E-474A-802B-0D3731108920</title>
    <desc>Created with sketchtool.</desc>
    <defs>
        <polygon id="path-1" points="0 0.1743 33.8256 0.1743 33.8256 34 0 34"></polygon>
    </defs>
    <g id="Symbols" stroke="none" stroke-width="1" fill="none" fill-rule="evenodd">
        <g id="main_icon11_roll">
            <g id="main_icon11" transform="translate(13.000000, 12.000000)">
                <g id="Group-3" transform="translate(0.000000, 0.825700)">
                    <mask id="mask-2" fill="white">
                        <use xlink:href="#path-1"></use>
                    </mask>
                    <g id="Clip-2"></g>
                    <path d="M16.9126,1.6743 C8.4136,1.6743 1.4996,8.5883 1.4996,17.0873 C1.4996,25.5863 8.4136,32.5003 16.9126,32.5003 C25.4116,32.5003 32.3256,25.5863 32.3256,17.0873 C32.3256,8.5883 25.4116,1.6743 16.9126,1.6743 M16.9126,34.0003 C7.5866,34.0003 -0.0004,26.4123 -0.0004,17.0873 C-0.0004,7.7613 7.5866,0.1743 16.9126,0.1743 C26.2386,0.1743 33.8256,7.7613 33.8256,17.0873 C33.8256,26.4123 26.2386,34.0003 16.9126,34.0003" id="Fill-1" fill="#FFFFFF" mask="url(#mask-2)"></path>
                </g>
                <path d="M16.8726,16.3975 C16.0076,16.3975 15.3046,17.1005 15.3046,17.9645 C15.3046,18.8295 16.0076,19.5325 16.8726,19.5325 C17.7366,19.5325 18.4396,18.8295 18.4396,17.9645 C18.4396,17.1005 17.7366,16.3975 16.8726,16.3975 M16.8726,21.0325 C15.1816,21.0325 13.8046,19.6565 13.8046,17.9645 C13.8046,16.2735 15.1816,14.8975 16.8726,14.8975 C18.5636,14.8975 19.9396,16.2735 19.9396,17.9645 C19.9396,19.6565 18.5636,21.0325 16.8726,21.0325" id="Fill-4" fill="#FFFFFF"></path>
                <path d="M23.8076,16.3975 C22.9426,16.3975 22.2396,17.1005 22.2396,17.9645 C22.2396,18.8295 22.9426,19.5325 23.8076,19.5325 C24.6716,19.5325 25.3746,18.8295 25.3746,17.9645 C25.3746,17.1005 24.6716,16.3975 23.8076,16.3975 M23.8076,21.0325 C22.1166,21.0325 20.7396,19.6565 20.7396,17.9645 C20.7396,16.2735 22.1166,14.8975 23.8076,14.8975 C25.4986,14.8975 26.8746,16.2735 26.8746,17.9645 C26.8746,19.6565 25.4986,21.0325 23.8076,21.0325" id="Fill-6" fill="#FFFFFF"></path>
                <path d="M10.0098,16.3447 C9.3068,16.3447 8.6668,16.8207 8.4888,17.5327 C8.2788,18.3707 8.7908,19.2237 9.6298,19.4337 C10.0358,19.5347 10.4568,19.4727 10.8158,19.2567 C11.1748,19.0417 11.4288,18.6987 11.5308,18.2927 C11.7398,17.4537 11.2278,16.6017 10.3888,16.3917 C10.2618,16.3597 10.1348,16.3447 10.0098,16.3447 M10.0148,20.9817 C9.7648,20.9817 9.5138,20.9507 9.2648,20.8887 C7.6238,20.4777 6.6228,18.8097 7.0328,17.1687 C7.4438,15.5277 9.1098,14.5257 10.7528,14.9367 C12.3948,15.3467 13.3958,17.0157 12.9858,18.6567 C12.7868,19.4517 12.2898,20.1217 11.5878,20.5437 C11.1048,20.8327 10.5638,20.9817 10.0148,20.9817" id="Fill-8" fill="#FFFFFF"></path>
            </g>
        </g>
    </g>
</svg>