<?xml version="1.0" encoding="UTF-8"?>
<svg width="60px" height="60px" viewBox="0 0 60 60" version="1.1" xmlns="http://www.w3.org/2000/svg" xmlns:xlink="http://www.w3.org/1999/xlink">
    <!-- Generator: sketchtool 48.2 (47327) - http://www.bohemiancoding.com/sketch -->
    <title>90D9A151-AF73-4604-A832-4470920F6899</title>
    <desc>Created with sketchtool.</desc>
    <defs>
        <polygon id="path-1" points="0.0755884553 0.078 21.8258886 0.078 21.8258886 15.6104 0.0755884553 15.6104"></polygon>
    </defs>
    <g id="Symbols" stroke="none" stroke-width="1" fill="none" fill-rule="evenodd">
        <g id="main_icon7_roll">
            <g id="main_icon7" transform="translate(16.000000, 11.000000)">
                <path d="M1.5,37.4224 L26.46,37.4224 L26.46,26.7214 C26.46,23.0054 23.437,19.9834 19.722,19.9834 L8.239,19.9834 C4.523,19.9834 1.5,23.0054 1.5,26.7214 L1.5,37.4224 Z M27.96,38.9224 L0,38.9224 L0,26.7214 C0,22.1784 3.696,18.4834 8.239,18.4834 L19.722,18.4834 C24.265,18.4834 27.96,22.1784 27.96,26.7214 L27.96,38.9224 Z" id="Fill-1" fill="#FFFFFF"></path>
                <path d="M13.96,24.2622 C12.358,24.2622 11.056,25.5652 11.056,27.1662 C11.056,28.7672 12.358,30.0702 13.96,30.0702 C15.561,30.0702 16.864,28.7672 16.864,27.1662 C16.864,25.5652 15.561,24.2622 13.96,24.2622 M13.96,31.5702 C11.531,31.5702 9.556,29.5952 9.556,27.1662 C9.556,24.7382 11.531,22.7622 13.96,22.7622 C16.388,22.7622 18.364,24.7382 18.364,27.1662 C18.364,29.5952 16.388,31.5702 13.96,31.5702" id="Fill-3" fill="#FFFFFF"></path>
                <path d="M8.0317,37.3999 L19.8877,37.3999 L19.8877,36.9879 C19.8877,34.0229 17.4747,31.6099 14.5097,31.6099 L13.4097,31.6099 C10.4447,31.6099 8.0317,34.0229 8.0317,36.9879 L8.0317,37.3999 Z M21.3877,38.8999 L6.5317,38.8999 L6.5317,36.9879 C6.5317,33.1959 9.6167,30.1099 13.4097,30.1099 L14.5097,30.1099 C18.3027,30.1099 21.3877,33.1959 21.3877,36.9879 L21.3877,38.8999 Z" id="Fill-5" fill="#FFFFFF"></path>
                <path d="M20.3545,15.7828 L20.3545,14.4878 C19.1885,16.8338 16.7725,18.4528 13.9805,18.4528 C11.1875,18.4528 8.7715,16.8338 7.6055,14.4878 L7.6055,15.7828 L6.6105,15.7828 C8.1235,18.2778 10.8565,19.9528 13.9805,19.9528 C17.1045,19.9528 19.8375,18.2778 21.3495,15.7828 L20.3545,15.7828 Z" id="Fill-7" fill="#FFFFFF"></path>
                <g id="Group-11" transform="translate(3.000000, 0.922400)">
                    <mask id="mask-2" fill="white">
                        <use xlink:href="#path-1"></use>
                    </mask>
                    <g id="Clip-10"></g>
                    <path d="M18.0747,14.1104 L19.1377,14.1104 C19.7817,14.1104 20.2957,13.6074 20.3087,12.9644 C20.3507,10.8774 20.4077,8.0184 19.5537,6.3684 C18.0697,3.5034 14.9867,1.5774 11.8827,1.5774 L10.0187,1.5774 C6.9147,1.5774 3.8317,3.5034 2.3477,6.3694 C1.4937,8.0174 1.5507,10.8774 1.5927,12.9644 C1.6057,13.6074 2.1197,14.1104 2.7627,14.1104 L3.8267,14.1104 L3.8267,8.9244 C3.8267,8.6894 3.9367,8.4684 4.1237,8.3264 C4.3107,8.1844 4.5537,8.1384 4.7797,8.2024 C6.7597,8.7594 10.2107,8.4224 11.1167,6.6264 C11.2517,6.3584 11.5377,6.1994 11.8317,6.2154 C12.1307,6.2334 12.3907,6.4284 12.4917,6.7104 C12.7997,7.5664 13.6797,8.2254 14.8457,8.4754 C15.8487,8.6914 16.5837,8.4934 16.7847,8.2844 C16.9967,8.0644 17.3237,7.9944 17.6057,8.1094 C17.8887,8.2234 18.0747,8.4994 18.0747,8.8044 L18.0747,14.1104 Z M19.1377,15.6104 L17.3247,15.6104 C16.9107,15.6104 16.5747,15.2744 16.5747,14.8604 L16.5747,9.9824 C15.9047,10.1214 15.1597,10.0774 14.5327,9.9424 C13.3457,9.6884 12.3537,9.1054 11.7027,8.3084 C10.1727,9.7724 7.4107,10.1454 5.3267,9.8454 L5.3267,14.8604 C5.3267,15.2744 4.9907,15.6104 4.5767,15.6104 L2.7627,15.6104 C1.3197,15.6104 0.1217,14.4374 0.0927,12.9954 C0.0367,10.1864 0.0657,7.5134 1.0157,5.6794 C2.7517,2.3284 6.3697,0.0774 10.0187,0.0774 L11.8827,0.0774 C15.5317,0.0774 19.1497,2.3284 20.8857,5.6784 C21.8367,7.5154 21.8647,10.1874 21.8087,12.9954 C21.7797,14.4374 20.5817,15.6104 19.1377,15.6104 Z" id="Fill-9" fill="#FFFFFF" mask="url(#mask-2)"></path>
                </g>
            </g>
        </g>
    </g>
</svg>