<?xml version="1.0" encoding="UTF-8"?>
<svg width="60px" height="60px" viewBox="0 0 60 60" version="1.1" xmlns="http://www.w3.org/2000/svg" xmlns:xlink="http://www.w3.org/1999/xlink">
    <!-- Generator: sketchtool 48.2 (47327) - http://www.bohemiancoding.com/sketch -->
    <title>7F4AA028-8205-4731-9623-5BD7767F038F</title>
    <desc>Created with sketchtool.</desc>
    <defs>
        <polygon id="path-1" points="0.632412908 0.627209488 28.028 0.627209488 28.028 28.3028 0.632412908 28.3028"></polygon>
        <polygon id="path-3" points="0 0.2892 21.2458 0.2892 21.2458 22 0 22"></polygon>
    </defs>
    <g id="Symbols" stroke="none" stroke-width="1" fill="none" fill-rule="evenodd">
        <g id="main_icon4">
            <g transform="translate(15.000000, 10.000000)">
                <g id="Group-3" transform="translate(1.000000, 8.969800)">
                    <mask id="mask-2" fill="white">
                        <use xlink:href="#path-1"></use>
                    </mask>
                    <g id="Clip-2"></g>
                    <path d="M11.0879,4.8838 C11.2899,4.8838 11.4859,4.9658 11.6289,5.1138 C11.8069,5.2998 11.8779,5.5628 11.8169,5.8128 L9.2349,16.3368 C8.9919,17.3578 9.5959,18.4088 10.6109,18.7238 C10.9809,18.8668 11.6979,18.9978 12.1669,19.0178 L18.0429,19.3038 C18.2799,19.3158 18.4979,19.4388 18.6299,19.6368 L22.8129,25.8988 C23.4339,26.8298 24.6949,27.0838 25.6249,26.4648 C26.5549,25.8458 26.8089,24.5858 26.1919,23.6548 L21.2369,16.2388 C21.1119,16.0518 20.9519,15.8878 20.7449,15.7368 C20.6529,15.6678 20.5789,15.6278 20.5049,15.5878 C20.4219,15.5418 20.3809,15.5168 20.3359,15.4968 C20.3319,15.4948 20.2389,15.4638 20.2339,15.4618 C20.0049,15.3738 19.7989,15.3258 19.6049,15.3168 L16.2279,15.1608 C16.0049,15.1508 15.7959,15.0408 15.6619,14.8618 C15.5279,14.6818 15.4809,14.4518 15.5339,14.2348 L17.4999,6.1858 C17.9169,4.2678 17.3269,3.0408 15.6919,2.4508 C15.0759,2.2288 14.0959,2.0268 13.3639,2.1838 L5.5129,3.7708 C5.3759,3.7918 5.2849,3.8168 5.2049,3.8498 C5.1999,3.8528 5.1119,3.8948 5.1069,3.8978 C4.8619,4.0188 4.6729,4.2218 4.5749,4.4698 C4.5599,4.5068 4.5429,4.5418 4.5229,4.5758 L2.2819,8.3458 C1.9779,8.8628 2.1509,9.5338 2.6699,9.8408 C3.1889,10.1468 3.8609,9.9728 4.1669,9.4538 L6.1459,6.1238 C6.2539,5.9418 6.4339,5.8138 6.6409,5.7718 L10.9389,4.8988 C10.9879,4.8888 11.0379,4.8838 11.0879,4.8838 M24.5079,28.3028 C23.3649,28.3028 22.2439,27.7508 21.5649,26.7308 L17.5929,20.7838 L12.0989,20.5158 C11.5409,20.4928 10.6429,20.3448 10.1149,20.1378 C8.4009,19.6078 7.3519,17.7758 7.7769,15.9848 L10.0779,6.6048 L7.2659,7.1758 L5.4579,10.2178 C4.7329,11.4468 3.1379,11.8578 1.9079,11.1328 C0.6769,10.4058 0.2649,8.8138 0.9909,7.5818 L3.2059,3.8558 C3.4469,3.2908 3.8829,2.8298 4.4399,2.5538 C4.4449,2.5508 4.5349,2.5018 4.5409,2.4998 L4.6469,2.4578 C4.8169,2.3858 5.0299,2.3258 5.2549,2.2938 L13.0579,0.7158 C14.3599,0.4368 15.7929,0.8928 16.1999,1.0398 C18.5299,1.8798 19.5369,3.8778 18.9619,6.5228 L17.2079,13.7048 L19.6739,13.8188 C20.0309,13.8348 20.3909,13.9148 20.7729,14.0618 C20.8399,14.0848 20.8909,14.1018 20.9399,14.1238 C21.0359,14.1658 21.1199,14.2128 21.2049,14.2608 C21.3449,14.3358 21.4729,14.4098 21.5959,14.4978 C21.9789,14.7808 22.2659,15.0778 22.4849,15.4078 L27.4389,22.8218 C27.4389,22.8228 27.4399,22.8228 27.4399,22.8238 C28.5159,24.4428 28.0749,26.6368 26.4559,27.7138 C25.8569,28.1128 25.1779,28.3028 24.5079,28.3028" id="Fill-1" fill="#000000" mask="url(#mask-2)"></path>
                </g>
                <path d="M19.4663,1.501 C18.7523,1.501 18.0493,1.699 17.4253,2.083 C16.5383,2.63 15.9163,3.49 15.6753,4.504 C15.4343,5.519 15.6033,6.567 16.1503,7.455 C16.6973,8.342 17.5573,8.964 18.5713,9.205 C19.5863,9.445 20.6343,9.277 21.5213,8.73 C22.4093,8.183 23.0303,7.323 23.2723,6.308 C23.5123,5.293 23.3443,4.246 22.7973,3.358 C22.2503,2.471 21.3903,1.849 20.3753,1.608 C20.0733,1.537 19.7693,1.501 19.4663,1.501 M19.4843,10.813 C19.0653,10.813 18.6433,10.764 18.2253,10.664 C16.8203,10.331 15.6303,9.47 14.8733,8.241 C14.1153,7.013 13.8833,5.563 14.2163,4.158 C14.5493,2.753 15.4103,1.563 16.6383,0.806 C17.8673,0.048 19.3173,-0.186 20.7223,0.149 C22.1263,0.482 23.3173,1.343 24.0743,2.571 C24.8313,3.8 25.0653,5.251 24.7313,6.655 C24.3983,8.059 23.5373,9.25 22.3083,10.007 C21.4453,10.539 20.4723,10.813 19.4843,10.813" id="Fill-4" fill="#000000"></path>
                <g id="Group-8" transform="translate(0.000000, 17.969800)">
                    <mask id="mask-4" fill="white">
                        <use xlink:href="#path-3"></use>
                    </mask>
                    <g id="Clip-7"></g>
                    <path d="M20.0288,13.0102 C19.1598,17.2782 15.3788,20.5002 10.8588,20.5002 C5.6978,20.5002 1.4998,16.3022 1.4998,11.1412 C1.4998,6.0692 5.5588,1.9362 10.5978,1.7962 L10.7398,0.2892 C4.8078,0.3532 -0.0002,5.1942 -0.0002,11.1412 C-0.0002,17.1292 4.8708,22.0002 10.8588,22.0002 C15.7478,22.0002 19.8898,18.7502 21.2458,14.2982 L20.0288,13.0102 Z" id="Fill-6" fill="#000000" mask="url(#mask-4)"></path>
                </g>
            </g>
        </g>
    </g>
</svg>