<svg xmlns="http://www.w3.org/2000/svg" xmlns:xlink="http://www.w3.org/1999/xlink" width="60" height="60" viewBox="0 0 60 60">
    <defs>
        <path id="a" d="M0 .865h34.136V35H0z"/>
    </defs>
    <g fill="none" fill-rule="evenodd">
        <g transform="translate(13 12.135)">
            <mask id="b" fill="#fff">
                <use xlink:href="#a"/>
            </mask>
            <path fill="#202020" d="M17.068 2.365A15.567 15.567 0 0 0 2.33 12.905a15.53 15.53 0 0 0-.83 5.028C1.5 26.517 8.484 33.5 17.068 33.5s15.568-6.983 15.568-15.567S25.652 2.365 17.068 2.365m0 32.635C7.657 35 0 27.344 0 17.933c0-1.887.306-3.741.91-5.512A17.067 17.067 0 0 1 17.068.865c9.41 0 17.068 7.657 17.068 17.068 0 9.41-7.657 17.067-17.068 17.067" mask="url(#b)"/>
        </g>
        <path fill="#202020" d="M30.685 46.811l-1.234-.852 1.036-1.502a5.684 5.684 0 0 0 1.14-3.394v-1.017a4.04 4.04 0 0 1 1.19-2.873c.48-.48.858-.819 1.228-1.098 1.452-1.097 3.494-1.24 5.202-.366 1.516.775 3.53 1.916 4.51 2.951l.228.241-1.089 1.031-.228-.24c-.65-.687-2.108-1.627-4.104-2.647-1.199-.613-2.619-.525-3.615.227-.312.235-.642.532-1.072.962a2.547 2.547 0 0 0-.75 1.812v1.017c0 1.53-.506 3.046-1.422 4.27l-1.02 1.478zM25.504 33.137a4.894 4.894 0 0 1-3.04-1.06l-2.045-1.627a3.372 3.372 0 0 0-1.827-.722l-4.616-.376.122-1.495 4.616.376a4.86 4.86 0 0 1 2.639 1.044l2.045 1.627A3.395 3.395 0 0 0 26 31.6a3.364 3.364 0 0 0 2.859-3.044l.258-2.971a4.898 4.898 0 0 1 2.725-3.961l2.942-1.43a3.384 3.384 0 0 0 1.85-2.467l.373-2.185 1.479.252-.373 2.185a4.88 4.88 0 0 1-2.674 3.565l-2.941 1.429a3.393 3.393 0 0 0-1.887 2.742l-.258 2.97a4.858 4.858 0 0 1-4.85 4.452"/>
    </g>
</svg>
