<?xml version="1.0" encoding="utf-8"?>
<!-- Generator: Adobe Illustrator 23.0.1, SVG Export Plug-In . SVG Version: 6.00 Build 0)  -->
<svg version="1.1" id="logo" xmlns="http://www.w3.org/2000/svg" xmlns:xlink="http://www.w3.org/1999/xlink" x="0px" y="0px"
	 viewBox="0 0 136 24" style="enable-background:new 0 0 136 24;" xml:space="preserve">
<style type="text/css">
	.st0{fill:#FFFFFF;}
</style>
<path id="svg_1" class="st0" d="M109.2,15.8L109.2,15.8l-4.4-15.1h-7v19h4.6l-0.3-15.6h0.1l4.7,15.6h6.7v-19H109L109.2,15.8z
	 M20.2,0.7l-3.5,19.2h5.1l2.6-17.5h0.1L27,19.9h5L28.6,0.7H20.2z M48.7,0.7l-2.3,14.7h-0.1L43.9,0.7h-7.7l-0.4,19.2h4.7l0.1-17.3
	h0.1l3.2,17.3h4.8l3.2-17.3H52l0.1,17.3h4.7L56.4,0.7H48.7z M5,5.6c-0.1-0.4-0.1-0.8,0-1C5.1,4,5.5,3.3,6.7,3.3C7.8,3.3,8.5,4,8.5,5
	v1.2h4.7V4.9c0-4.2-3.7-4.8-6.4-4.8c-3.4,0-6.1,1.1-6.6,4.3C0.1,5.2,0,5.9,0.2,6.9C1,10.8,7.7,12,8.7,14.5c0.2,0.5,0.1,1.1,0,1.4
	c-0.2,0.6-0.6,1.3-1.8,1.3S5,16.5,5,15.5v-1.9H0v1.5c0,4.3,3.3,5.6,6.9,5.6c3.4,0,6.2-1.2,6.7-4.4c0.2-1.7,0.1-2.8,0-3.2
	C12.7,9.1,5.5,7.9,5,5.6z M66.4,5.7c-0.1-0.4-0.1-0.8,0-1c0.1-0.6,0.5-1.3,1.7-1.3c1.1,0,1.7,0.7,1.7,1.7v1.2h4.7V5
	c0-4.1-3.7-4.8-6.3-4.8c-3.3,0-6,1.1-6.5,4.2c-0.1,0.8-0.2,1.6,0,2.6c0.8,3.9,7.4,5,8.4,7.5c0.2,0.5,0.1,1.1,0,1.4
	c-0.2,0.6-0.6,1.3-1.8,1.3c-1.2,0-1.9-0.7-1.9-1.7v-1.9h-5V15c0,4.2,3.3,5.5,6.8,5.5c3.4,0,6.2-1.2,6.6-4.3c0.2-1.6,0.1-2.7,0-3.1
	C74,9.1,66.9,7.9,66.4,5.7z M87.8,14.9c0,0.2,0,0.5,0,0.7C87.7,16.1,87.3,17,86,17s-1.7-0.9-1.8-1.4c0-0.2,0-0.5,0-0.7V0.7h-4.8
	v13.8c0,0.4,0,1.1,0,1.3c0.3,3.6,3.1,4.7,6.6,4.7s6.3-1.2,6.6-4.7c0-0.2,0.1-0.9,0-1.3V0.7h-4.8L87.8,14.9L87.8,14.9z M125.3,9.1
	v2.8h1.9v2.8c0,0.2,0,0.5,0,0.7c-0.1,0.5-0.6,1.4-1.9,1.4c-1.4,0-1.8-0.9-1.9-1.4c0-0.2,0-0.5,0-0.7V5.9c0-0.3,0-0.7,0.1-0.9
	c0.1-0.5,0.5-1.4,1.9-1.4s1.8,1,1.9,1.4c0.1,0.3,0.1,0.7,0.1,0.7v1.1h4.8V6.2c0,0,0-0.7,0-1.3c-0.3-3.6-3.3-4.8-6.6-4.8
	c-3.3,0-6.2,1.1-6.6,4.8c0,0.3-0.1,0.9-0.1,1.3v8.1c0,0.4,0,0.6,0.1,1.3c0.3,3.5,3.3,4.8,6.6,4.8s6.3-1.3,6.6-4.8
	c0.1-0.6,0.1-0.9,0.1-1.3V9.1H125.3z"/>
</svg>
